<?xml version="1.0" encoding="UTF-8" standalone="no"?>
<!DOCTYPE svg PUBLIC "-//W3C//DTD SVG 1.1//EN" "http://www.w3.org/Graphics/SVG/1.1/DTD/svg11.dtd">
<svg version="1.1" xmlns="http://www.w3.org/2000/svg" xmlns:xlink="http://www.w3.org/1999/xlink" preserveAspectRatio="xMidYMid meet" viewBox="0 0 640 640" width="640" height="640"><defs><path d="M305.93 211.8C320.9 210.85 332.79 199.42 333.78 185.02C336.04 152.16 334.13 93.33 297.84 58.43C267.64 29.39 220.23 23.24 185.47 23.25C159.17 23.25 137.72 43.88 137.72 69.17C137.71 102.6 144.1 148.2 174.3 177.24C210.59 212.15 271.75 213.98 305.93 211.8Z" id="ajtehlL7m"></path><path d="M336.21 213.24C321.22 212.61 309.08 201.43 307.77 187.05C304.76 154.24 305.34 95.39 340.83 59.74C370.37 30.07 417.63 22.93 452.38 22.21C478.67 21.66 500.58 41.84 501.16 67.13C501.92 100.55 496.57 146.27 467.03 175.93C431.54 211.59 370.43 214.7 336.21 213.24Z" id="aSp8UToQH"></path><path d="M320 176.35C207.93 176.35 117.07 203.7 117.07 311.49C117.07 419.27 207.92 617.8 320 617.8C432.08 617.8 522.93 419.27 522.93 311.49C522.93 203.7 432.07 176.35 320 176.35Z" id="avHnTXCQJ"></path><path d="M305.93 211.8C320.9 210.85 332.79 199.42 333.78 185.02C336.04 152.16 334.13 93.33 297.84 58.43C267.64 29.39 220.23 23.24 185.47 23.25C159.17 23.25 137.72 43.88 137.72 69.17C137.71 102.6 144.1 148.2 174.3 177.24C210.59 212.15 271.75 213.98 305.93 211.8Z" id="abjPlKk0x"></path><path d="M295.51 336.45C295.51 334.27 295.51 316.79 295.51 314.6C295.51 301.59 306.47 291.05 320 291.05C333.53 291.05 344.49 301.59 344.49 314.6C344.49 316.79 344.49 334.27 344.49 336.45C344.49 349.46 333.53 360.01 320 360.01C306.47 360.01 295.51 349.46 295.51 336.45Z" id="a13gyPWOiG"></path><path d="M185.62 301.08C185.62 298.89 185.62 281.41 185.62 279.23C185.62 266.22 196.58 255.68 210.11 255.68C223.63 255.68 234.6 266.22 234.6 279.23C234.6 281.41 234.6 298.89 234.6 301.08C234.6 314.09 223.63 324.63 210.11 324.63C196.58 324.63 185.62 314.09 185.62 301.08Z" id="b9ShhCBSA"></path><path d="M221.32 408.07C221.32 405.88 221.32 388.4 221.32 386.22C221.32 373.21 232.28 362.66 245.81 362.66C259.33 362.66 270.3 373.21 270.3 386.22C270.3 388.4 270.3 405.88 270.3 408.07C270.3 421.08 259.33 431.62 245.81 431.62C232.28 431.62 221.32 421.08 221.32 408.07Z" id="bx5bPd9WT"></path><path d="M405.4 301.08C405.4 298.89 405.4 281.41 405.4 279.23C405.4 266.22 416.37 255.68 429.89 255.68C443.42 255.68 454.38 266.22 454.38 279.23C454.38 281.41 454.38 298.89 454.38 301.08C454.38 314.09 443.42 324.63 429.89 324.63C416.37 324.63 405.4 314.09 405.4 301.08Z" id="b4ilktYc5"></path><path d="M369.7 408.07C369.7 405.88 369.7 388.4 369.7 386.22C369.7 373.21 380.66 362.66 394.19 362.66C407.71 362.66 418.68 373.21 418.68 386.22C418.68 388.4 418.68 405.88 418.68 408.07C418.68 421.08 407.71 431.62 394.19 431.62C380.66 431.62 369.7 421.08 369.7 408.07Z" id="c39HlzI4M"></path><path d="M295.51 505.87C295.51 503.69 295.51 486.21 295.51 484.02C295.51 471.01 306.47 460.47 320 460.47C333.53 460.47 344.49 471.01 344.49 484.02C344.49 486.21 344.49 503.69 344.49 505.87C344.49 518.88 333.53 529.42 320 529.42C306.47 529.42 295.51 518.88 295.51 505.87Z" id="a4sqmQEO5n"></path></defs><g><g><g><use xlink:href="#ajtehlL7m" opacity="1" fill="#20ab6c" fill-opacity="1"></use><g><use xlink:href="#ajtehlL7m" opacity="1" fill-opacity="0" stroke="#000000" stroke-width="1" stroke-opacity="0"></use></g></g><g><use xlink:href="#aSp8UToQH" opacity="1" fill="#20ab6c" fill-opacity="1"></use><g><use xlink:href="#aSp8UToQH" opacity="1" fill-opacity="0" stroke="#000000" stroke-width="1" stroke-opacity="0"></use></g></g><g><use xlink:href="#avHnTXCQJ" opacity="1" fill="#e3637b" fill-opacity="1"></use><g><use xlink:href="#avHnTXCQJ" opacity="1" fill-opacity="0" stroke="#000000" stroke-width="1" stroke-opacity="0"></use></g></g><g><use xlink:href="#abjPlKk0x" opacity="1" fill="#188f59" fill-opacity="1"></use><g><use xlink:href="#abjPlKk0x" opacity="1" fill-opacity="0" stroke="#000000" stroke-width="1" stroke-opacity="0"></use></g></g><g><use xlink:href="#a13gyPWOiG" opacity="1" fill="#f5d96c" fill-opacity="1"></use><g><use xlink:href="#a13gyPWOiG" opacity="1" fill-opacity="0" stroke="#000000" stroke-width="1" stroke-opacity="0"></use></g></g><g><use xlink:href="#b9ShhCBSA" opacity="1" fill="#f5d96c" fill-opacity="1"></use><g><use xlink:href="#b9ShhCBSA" opacity="1" fill-opacity="0" stroke="#000000" stroke-width="1" stroke-opacity="0"></use></g></g><g><use xlink:href="#bx5bPd9WT" opacity="1" fill="#f5d96c" fill-opacity="1"></use><g><use xlink:href="#bx5bPd9WT" opacity="1" fill-opacity="0" stroke="#000000" stroke-width="1" stroke-opacity="0"></use></g></g><g><use xlink:href="#b4ilktYc5" opacity="1" fill="#f5d96c" fill-opacity="1"></use><g><use xlink:href="#b4ilktYc5" opacity="1" fill-opacity="0" stroke="#000000" stroke-width="1" stroke-opacity="0"></use></g></g><g><use xlink:href="#c39HlzI4M" opacity="1" fill="#f5d96c" fill-opacity="1"></use><g><use xlink:href="#c39HlzI4M" opacity="1" fill-opacity="0" stroke="#000000" stroke-width="1" stroke-opacity="0"></use></g></g><g><use xlink:href="#a4sqmQEO5n" opacity="1" fill="#f5d96c" fill-opacity="1"></use><g><use xlink:href="#a4sqmQEO5n" opacity="1" fill-opacity="0" stroke="#000000" stroke-width="1" stroke-opacity="0"></use></g></g></g></g></svg>